<svg width="20" height="20" viewBox="0 0 20 20" fill="none" xmlns="http://www.w3.org/2000/svg">
<path fill-rule="evenodd" clip-rule="evenodd" d="M3.3335 10C3.3335 9.53977 3.70659 9.16667 4.16683 9.16667H15.8335C16.2937 9.16667 16.6668 9.53977 16.6668 10C16.6668 10.4602 16.2937 10.8333 15.8335 10.8333H4.16683C3.70659 10.8333 3.3335 10.4602 3.3335 10Z" fill="white"/>
<path fill-rule="evenodd" clip-rule="evenodd" d="M16.4227 9.41075C16.7482 9.73618 16.7482 10.2638 16.4227 10.5893L13.0894 13.9226C12.764 14.248 12.2363 14.248 11.9109 13.9226C11.5855 13.5972 11.5855 13.0695 11.9109 12.7441L15.2442 9.41075C15.5697 9.08531 16.0973 9.08531 16.4227 9.41075Z" fill="white"/>
<path fill-rule="evenodd" clip-rule="evenodd" d="M11.9109 6.07741C12.2363 5.75197 12.764 5.75197 13.0894 6.07741L16.4227 9.41075C16.7482 9.73618 16.7482 10.2638 16.4227 10.5893C16.0973 10.9147 15.5697 10.9147 15.2442 10.5893L11.9109 7.25592C11.5855 6.93048 11.5855 6.40284 11.9109 6.07741Z" fill="white"/>
</svg>
